<svg width="408" height="401" viewBox="0 0 408 401" fill="none" xmlns="http://www.w3.org/2000/svg">
<path d="M95 48.5L168.5 6.5L176 18L116.5 53L193 94L111.5 62.5V160.5L195.5 210.5L204.5 107.5L209.5 210.5L292 160.5L290 60.5L212.5 94L284 51L216 12.5L222.5 0L302 45L304 154L376 118.5L312 168L405 218L407.5 335.5L332 382L325.5 368.5L388.5 331.5L309.5 286L393 321.5L390.5 223L305.5 177L297.5 276.5L292 177L209.5 225.5L212.5 323.5L289.5 286L216.5 335.5L282.5 370.5L275.5 382L203.5 344L106.5 400.5L0 341.5V284.5H13V324.5L94 290L23 339L106.5 384.5L199 329.5L195.5 225.5L111.5 177L104 251.5L97 177L13 225.5V274H0V219.5L97 163L95 48.5Z" fill="currentColor"/>
</svg>
