<svg width="85" height="92" viewBox="0 0 85 92" fill="none" xmlns="http://www.w3.org/2000/svg">
<path d="M13.968 86.756H9.28803L8.28003 89H7.35603L11.196 80.6H12.072L15.912 89H14.976L13.968 86.756ZM13.644 86.036L11.628 81.524L9.61203 86.036H13.644ZM20.3736 82.64C20.9656 82.64 21.5016 82.776 21.9816 83.048C22.4616 83.312 22.8376 83.688 23.1096 84.176C23.3816 84.664 23.5176 85.22 23.5176 85.844C23.5176 86.476 23.3816 87.036 23.1096 87.524C22.8376 88.012 22.4616 88.392 21.9816 88.664C21.5096 88.928 20.9736 89.06 20.3736 89.06C19.8616 89.06 19.3976 88.956 18.9816 88.748C18.5736 88.532 18.2376 88.22 17.9736 87.812V91.328H17.1216V82.688H17.9376V83.936C18.1936 83.52 18.5296 83.2 18.9456 82.976C19.3696 82.752 19.8456 82.64 20.3736 82.64ZM20.3136 88.304C20.7536 88.304 21.1536 88.204 21.5136 88.004C21.8736 87.796 22.1536 87.504 22.3536 87.128C22.5616 86.752 22.6656 86.324 22.6656 85.844C22.6656 85.364 22.5616 84.94 22.3536 84.572C22.1536 84.196 21.8736 83.904 21.5136 83.696C21.1536 83.488 20.7536 83.384 20.3136 83.384C19.8656 83.384 19.4616 83.488 19.1016 83.696C18.7496 83.904 18.4696 84.196 18.2616 84.572C18.0616 84.94 17.9616 85.364 17.9616 85.844C17.9616 86.324 18.0616 86.752 18.2616 87.128C18.4696 87.504 18.7496 87.796 19.1016 88.004C19.4616 88.204 19.8656 88.304 20.3136 88.304ZM28.5064 82.64C29.0984 82.64 29.6344 82.776 30.1144 83.048C30.5944 83.312 30.9704 83.688 31.2424 84.176C31.5144 84.664 31.6504 85.22 31.6504 85.844C31.6504 86.476 31.5144 87.036 31.2424 87.524C30.9704 88.012 30.5944 88.392 30.1144 88.664C29.6424 88.928 29.1064 89.06 28.5064 89.06C27.9944 89.06 27.5304 88.956 27.1144 88.748C26.7064 88.532 26.3704 88.22 26.1064 87.812V91.328H25.2544V82.688H26.0704V83.936C26.3264 83.52 26.6624 83.2 27.0784 82.976C27.5024 82.752 27.9784 82.64 28.5064 82.64ZM28.4464 88.304C28.8864 88.304 29.2864 88.204 29.6464 88.004C30.0064 87.796 30.2864 87.504 30.4864 87.128C30.6944 86.752 30.7984 86.324 30.7984 85.844C30.7984 85.364 30.6944 84.94 30.4864 84.572C30.2864 84.196 30.0064 83.904 29.6464 83.696C29.2864 83.488 28.8864 83.384 28.4464 83.384C27.9984 83.384 27.5944 83.488 27.2344 83.696C26.8824 83.904 26.6024 84.196 26.3944 84.572C26.1944 84.94 26.0944 85.364 26.0944 85.844C26.0944 86.324 26.1944 86.752 26.3944 87.128C26.6024 87.504 26.8824 87.796 27.2344 88.004C27.5944 88.204 27.9984 88.304 28.4464 88.304ZM45.4318 80.6V89H44.5798V82.28L41.2798 87.932H40.8598L37.5598 82.316V89H36.7078V80.6H37.4398L41.0878 86.828L44.6998 80.6H45.4318ZM50.1968 82.64C51.0208 82.64 51.6528 82.848 52.0928 83.264C52.5328 83.672 52.7528 84.28 52.7528 85.088V89H51.9368V88.016C51.7448 88.344 51.4608 88.6 51.0848 88.784C50.7168 88.968 50.2768 89.06 49.7648 89.06C49.0608 89.06 48.5008 88.892 48.0848 88.556C47.6688 88.22 47.4608 87.776 47.4608 87.224C47.4608 86.688 47.6528 86.256 48.0368 85.928C48.4288 85.6 49.0488 85.436 49.8968 85.436H51.9008V85.052C51.9008 84.508 51.7488 84.096 51.4448 83.816C51.1408 83.528 50.6968 83.384 50.1128 83.384C49.7128 83.384 49.3288 83.452 48.9608 83.588C48.5928 83.716 48.2768 83.896 48.0128 84.128L47.6288 83.492C47.9488 83.22 48.3328 83.012 48.7808 82.868C49.2288 82.716 49.7008 82.64 50.1968 82.64ZM49.8968 88.388C50.3768 88.388 50.7888 88.28 51.1328 88.064C51.4768 87.84 51.7328 87.52 51.9008 87.104V86.072H49.9208C48.8408 86.072 48.3008 86.448 48.3008 87.2C48.3008 87.568 48.4408 87.86 48.7208 88.076C49.0008 88.284 49.3928 88.388 49.8968 88.388ZM55.8829 83.924C56.0829 83.5 56.3789 83.18 56.7709 82.964C57.1709 82.748 57.6629 82.64 58.2469 82.64V83.468L58.0429 83.456C57.3789 83.456 56.8589 83.66 56.4829 84.068C56.1069 84.476 55.9189 85.048 55.9189 85.784V89H55.0669V82.688H55.8829V83.924ZM62.1296 85.832L60.6416 87.2V89H59.7896V80.096H60.6416V86.132L64.4096 82.688H65.4656L62.7656 85.268L65.7176 89H64.6736L62.1296 85.832ZM72.2348 86.108H66.9548C67.0028 86.764 67.2548 87.296 67.7108 87.704C68.1668 88.104 68.7428 88.304 69.4388 88.304C69.8308 88.304 70.1908 88.236 70.5188 88.1C70.8468 87.956 71.1308 87.748 71.3708 87.476L71.8508 88.028C71.5708 88.364 71.2188 88.62 70.7948 88.796C70.3788 88.972 69.9188 89.06 69.4148 89.06C68.7668 89.06 68.1908 88.924 67.6868 88.652C67.1908 88.372 66.8028 87.988 66.5228 87.5C66.2428 87.012 66.1028 86.46 66.1028 85.844C66.1028 85.228 66.2348 84.676 66.4988 84.188C66.7708 83.7 67.1388 83.32 67.6028 83.048C68.0748 82.776 68.6028 82.64 69.1868 82.64C69.7708 82.64 70.2948 82.776 70.7588 83.048C71.2228 83.32 71.5868 83.7 71.8508 84.188C72.1148 84.668 72.2468 85.22 72.2468 85.844L72.2348 86.108ZM69.1868 83.372C68.5788 83.372 68.0668 83.568 67.6508 83.96C67.2428 84.344 67.0108 84.848 66.9548 85.472H71.4308C71.3748 84.848 71.1388 84.344 70.7228 83.96C70.3148 83.568 69.8028 83.372 69.1868 83.372ZM77.305 88.616C77.145 88.76 76.945 88.872 76.705 88.952C76.473 89.024 76.229 89.06 75.973 89.06C75.381 89.06 74.925 88.9 74.605 88.58C74.285 88.26 74.125 87.808 74.125 87.224V83.408H72.997V82.688H74.125V81.308H74.977V82.688H76.897V83.408H74.977V87.176C74.977 87.552 75.069 87.84 75.253 88.04C75.445 88.232 75.717 88.328 76.069 88.328C76.245 88.328 76.413 88.3 76.573 88.244C76.741 88.188 76.885 88.108 77.005 88.004L77.305 88.616Z" fill="#1E1D1D"/>
<g filter="url(#filter0_d)">
<rect x="12" y="4" width="62" height="62" rx="13" fill="url(#paint0_linear)"/>
</g>
<path d="M56.1767 39.9108L56.1767 39.9108L60.1497 26.606C60.2587 26.2413 60.1883 25.8467 59.9605 25.5418L59.9604 25.5418C59.7325 25.2369 59.3737 25.0574 58.9928 25.0574H33.5061L32.1932 20.6608L32.0016 20.718L32.1932 20.6608C32.0407 20.1499 31.5699 19.8002 31.0362 19.8002L27.0073 19.8002C27.0073 19.8002 27.0073 19.8002 27.0073 19.8002C26.3411 19.8001 25.8 20.3389 25.8 21.0048C25.8 21.6705 26.3411 22.2094 27.0073 22.2094H30.1362L31.442 26.5824C31.4463 26.5976 31.4511 26.614 31.4566 26.6309L34.97 38.3969C32.9389 38.6561 31.3631 40.39 31.3631 42.4864C31.3631 44.7611 33.2181 46.6105 35.4975 46.6105H36.3508C36.8567 48.1137 38.2813 49.2002 39.9571 49.2002C41.6328 49.2002 43.0575 48.1138 43.5634 46.6105H48.6145C49.1204 48.1137 50.545 49.2002 52.2208 49.2002C53.8965 49.2002 55.3211 48.1138 55.8271 46.6105H56.9781C57.6444 46.6105 58.1854 46.0716 58.1854 45.4058C58.1854 44.74 57.6444 44.2012 56.9781 44.2012H55.8271C55.3212 42.6978 53.8966 41.6114 52.2208 41.6114C50.545 41.6114 49.1203 42.6978 48.6144 44.2012H43.5634C43.0575 42.6978 41.6329 41.6114 39.9571 41.6114C38.2813 41.6114 36.8566 42.6978 36.3508 44.2012H35.4975C34.5488 44.2012 33.7776 43.4312 33.7776 42.4863C33.7776 41.5414 34.5489 40.7715 35.4976 40.7715H36.5791H55.0197C55.5534 40.7715 56.0241 40.4218 56.1767 39.9108ZM50.4746 27.4666H57.3733L56.1062 31.7098H50.4746V27.4666ZM50.4745 34.119H55.3867L54.1197 38.3622H50.4745V34.119ZM43.021 27.4666H48.06V31.7098H43.021V27.4666ZM43.0209 34.119H48.06V38.3622H43.0209V34.119ZM40.6065 38.3622H37.4792L36.2121 34.119H40.6065V38.3622ZM34.2257 27.4666H40.6064V31.7098H35.4927L34.2257 27.4666ZM52.2208 44.0207C52.9872 44.0207 53.6101 44.6427 53.6101 45.4057C53.6101 46.1688 52.9872 46.7908 52.2208 46.7908C51.4544 46.7908 50.8315 46.1688 50.8315 45.4057C50.8315 44.6427 51.4544 44.0207 52.2208 44.0207ZM39.9572 44.0207C40.7236 44.0207 41.3465 44.6427 41.3465 45.4057C41.3465 46.1688 40.7236 46.7908 39.9572 46.7908C39.1908 46.7908 38.5679 46.1688 38.5679 45.4057C38.5679 44.6427 39.1908 44.0207 39.9572 44.0207Z" fill="white" stroke="white" stroke-width="0.4"/>
<defs>
<filter id="filter0_d" x="4" y="0" width="78" height="78" filterUnits="userSpaceOnUse" color-interpolation-filters="sRGB">
<feFlood flood-opacity="0" result="BackgroundImageFix"/>
<feColorMatrix in="SourceAlpha" type="matrix" values="0 0 0 0 0 0 0 0 0 0 0 0 0 0 0 0 0 0 127 0"/>
<feOffset dy="4"/>
<feGaussianBlur stdDeviation="4"/>
<feColorMatrix type="matrix" values="0 0 0 0 0.356863 0 0 0 0 0.360784 0 0 0 0 0.356863 0 0 0 0.35 0"/>
<feBlend mode="normal" in2="BackgroundImageFix" result="effect1_dropShadow"/>
<feBlend mode="normal" in="SourceGraphic" in2="effect1_dropShadow" result="shape"/>
</filter>
<linearGradient id="paint0_linear" x1="43" y1="4" x2="43" y2="66" gradientUnits="userSpaceOnUse">
<stop stop-color="#FFE259"/>
<stop offset="1" stop-color="#FFA751"/>
</linearGradient>
</defs>
</svg>
